<?xml version="1.0" standalone="no"?>
<!DOCTYPE svg PUBLIC "-//W3C//DTD SVG 20010904//EN"
 "http://www.w3.org/TR/2001/REC-SVG-20010904/DTD/svg10.dtd">
<svg version="1.0" xmlns="http://www.w3.org/2000/svg"
 width="498.000000pt" height="501.000000pt" viewBox="0 0 498.000000 501.000000"
 preserveAspectRatio="xMidYMid meet">

<g transform="translate(0.000000,501.000000) scale(0.100000,-0.100000)"
fill="#000000" stroke="none">
<path d="M2430 4988 c-300 -86 -670 -241 -955 -401 -133 -75 -370 -233 -490
-326 -322 -252 -624 -566 -865 -901 -122 -169 -110 -130 -109 -377 2 -558 83
-1018 264 -1498 49 -128 157 -376 175 -400 4 -5 24 -44 46 -85 108 -211 388
-638 461 -701 10 -9 72 -35 138 -57 885 -302 1781 -313 2682 -33 250 78 230
68 306 162 80 98 253 355 327 484 371 649 559 1362 564 2141 l1 202 -50 73
c-532 780 -1248 1326 -2150 1641 -257 90 -278 95 -345 76z m103 -364 c76 -136
87 -277 30 -389 -17 -33 -40 -70 -50 -82 l-20 -22 -26 27 c-101 107 -113 281
-30 447 46 92 54 93 96 19z m-302 -43 c-27 -53 -51 -145 -51 -196 0 -22 9 -58
19 -80 40 -88 199 -196 291 -198 88 -2 241 98 285 186 37 75 31 159 -23 280
-11 26 -18 47 -15 47 9 0 97 -46 138 -72 173 -111 212 -318 78 -411 -72 -49
-226 -87 -359 -87 -41 0 -74 -4 -74 -10 0 -5 5 -20 11 -33 l11 -25 62 20 c47
15 103 22 241 27 199 8 218 13 273 76 18 19 35 47 38 61 7 29 -1 199 -11 232
l-8 23 52 -20 c247 -93 326 -306 171 -461 -23 -23 -67 -53 -97 -67 -79 -36
-190 -30 -323 18 -91 32 -101 34 -232 34 -75 0 -139 -3 -142 -6 -3 -3 7 -42
21 -87 21 -64 31 -81 43 -76 8 3 46 12 84 20 81 17 156 9 283 -30 95 -30 181
-46 244 -46 94 0 234 40 291 83 9 7 27 33 40 57 21 41 23 57 23 182 -1 159
-10 152 109 90 87 -45 166 -123 208 -204 29 -56 33 -72 33 -143 0 -70 -4 -87
-29 -133 -77 -139 -238 -199 -461 -173 -181 21 -234 40 -436 153 -46 26 -118
57 -161 69 -70 21 -79 21 -115 8 -26 -10 -44 -26 -58 -51 l-19 -36 29 -94 c16
-51 31 -96 34 -100 4 -4 29 9 58 28 116 78 271 64 563 -51 118 -46 227 -72
346 -81 79 -6 102 -3 164 15 61 19 82 31 125 75 59 59 115 162 135 246 7 30
15 59 18 64 11 19 132 -128 172 -209 88 -178 92 -314 11 -436 -57 -86 -175
-147 -339 -176 -79 -14 -106 -15 -175 -5 -143 21 -246 82 -420 251 -146 142
-321 238 -452 248 -53 4 -65 1 -102 -23 -69 -46 -71 -56 -28 -181 20 -59 38
-109 40 -111 1 -2 40 4 86 14 151 30 233 9 439 -113 148 -87 316 -173 402
-205 82 -32 85 -32 269 -32 l185 -1 76 38 c56 27 91 53 128 95 53 58 122 182
135 240 3 17 12 32 20 32 21 0 93 -102 121 -171 35 -86 44 -235 20 -328 -28
-109 -72 -187 -150 -266 -113 -115 -239 -165 -414 -165 -247 1 -478 150 -667
430 -91 135 -186 229 -277 275 -65 32 -78 35 -161 35 -94 0 -171 -16 -164 -34
3 -6 12 -37 22 -68 l18 -56 -28 -34 c-31 -37 -165 -185 -237 -262 -26 -28 -48
-54 -48 -57 0 -3 29 -45 65 -92 36 -48 65 -91 65 -96 0 -6 -25 -48 -55 -95
-30 -46 -55 -86 -55 -89 0 -2 32 -8 71 -11 38 -4 91 -14 117 -22 26 -7 50 -14
54 -14 4 0 19 22 33 49 33 66 115 147 179 176 94 43 128 55 152 55 22 0 23 -3
17 -52 -11 -105 -33 -194 -68 -266 -40 -84 -43 -82 65 -35 62 27 72 28 210 27
103 -1 179 -8 260 -23 217 -41 320 -51 538 -51 127 0 212 -4 212 -10 0 -10
-56 -51 -140 -100 -282 -168 -402 -207 -677 -226 -56 -4 -100 -11 -97 -15 12
-21 176 -119 241 -145 40 -16 73 -32 73 -36 0 -4 -12 -10 -27 -14 -16 -3 -44
-10 -63 -16 -19 -5 -114 -12 -211 -15 -175 -5 -294 4 -397 31 -29 7 -52 10
-52 6 0 -27 33 -106 57 -137 37 -47 53 -93 53 -151 0 -38 -2 -43 -17 -37 -68
28 -117 35 -247 35 -233 1 -323 22 -437 106 l-49 36 -49 -36 c-114 -84 -204
-105 -437 -106 -130 0 -179 -7 -246 -35 -16 -6 -18 -1 -18 37 0 58 16 104 53
151 24 31 57 110 57 137 0 4 -23 1 -50 -6 -151 -39 -453 -47 -603 -15 -81 17
-107 26 -96 34 2 2 44 21 93 43 50 21 122 61 160 89 l71 50 -145 12 c-256 22
-368 61 -640 223 -84 49 -140 90 -140 100 0 6 85 10 213 10 217 0 320 10 537
51 82 16 157 22 260 23 138 1 148 0 210 -27 108 -47 105 -49 65 35 -34 71 -56
156 -70 267 l-6 54 38 -6 c115 -16 266 -124 319 -229 22 -42 29 -49 47 -44 46
14 170 36 198 36 16 0 29 3 29 6 0 3 -25 44 -55 90 -30 47 -55 89 -55 95 0 5
29 48 65 96 36 47 65 89 65 92 0 3 -22 29 -48 57 -72 77 -206 225 -237 262
l-28 34 18 56 c10 31 20 62 22 68 2 7 -11 17 -29 22 -98 31 -211 22 -305 -25
-71 -35 -182 -145 -252 -248 -137 -200 -242 -303 -389 -378 -144 -74 -281 -93
-434 -62 -186 39 -326 160 -404 350 -26 65 -28 80 -28 200 0 113 3 138 23 188
23 57 108 180 126 181 5 1 15 -18 21 -41 38 -131 154 -279 257 -328 101 -48
364 -58 499 -19 61 18 221 94 323 153 135 79 278 154 326 172 60 23 160 24
248 4 35 -9 65 -14 66 -13 14 15 75 222 70 237 -3 10 -22 32 -42 47 -73 55
-192 40 -343 -43 -92 -51 -151 -97 -260 -202 -150 -145 -244 -199 -382 -221
-93 -15 -207 -2 -307 36 -131 49 -196 102 -240 194 -49 104 -30 274 47 410 24
42 154 201 160 196 1 -2 11 -36 22 -75 29 -104 75 -188 134 -245 72 -70 131
-91 258 -89 133 2 237 25 403 88 287 110 428 120 542 39 26 -18 50 -30 53 -26
4 4 19 48 35 99 25 80 27 95 16 121 -29 70 -89 86 -191 52 -61 -20 -102 -40
-271 -134 -119 -65 -345 -106 -482 -87 -106 15 -176 44 -230 95 -71 69 -92
116 -92 211 0 74 3 85 39 153 45 85 109 146 206 196 115 60 108 65 102 -68 -6
-140 6 -193 57 -246 43 -44 121 -76 229 -92 91 -13 179 -2 326 42 134 40 202
46 297 22 l76 -19 26 81 c15 44 24 82 21 85 -10 11 -220 13 -269 3 -27 -6 -84
-22 -125 -37 -105 -38 -216 -44 -291 -16 -107 40 -189 148 -189 247 0 121 120
249 279 299 22 7 23 5 16 -16 -14 -44 -18 -218 -5 -250 18 -42 84 -95 135
-108 24 -6 104 -11 177 -11 97 0 152 -5 204 -19 40 -10 76 -21 81 -24 10 -6
33 33 33 53 0 6 -28 10 -62 10 -127 0 -299 40 -367 86 -131 86 -103 293 54
401 42 28 159 92 163 88 2 -2 -6 -21 -17 -44z m-1269 -3153 c45 -31 98 -114
142 -222 23 -56 57 -121 75 -144 39 -47 41 -40 -46 -155 -23 -31 -43 -68 -43
-81 0 -12 -5 -38 -11 -56 -11 -30 -14 -32 -47 -26 -71 11 -140 118 -162 251
-13 76 -56 161 -116 233 -20 23 -32 42 -27 42 5 0 56 -15 114 -34 57 -19 105
-33 107 -31 2 2 -8 57 -22 124 -14 67 -26 123 -26 126 0 7 33 -7 62 -27z
m3064 -56 c-23 -103 -34 -161 -29 -165 2 -3 51 11 109 30 58 19 108 33 111 30
3 -4 -14 -28 -37 -54 -56 -64 -96 -145 -110 -224 -23 -128 -102 -249 -164
-249 -32 0 -42 15 -53 75 -7 36 -26 74 -65 130 l-56 80 28 35 c28 35 41 60 99
194 16 38 47 93 69 121 40 51 104 94 110 74 2 -5 -3 -40 -12 -77z m-2598 -283
c327 -207 630 -310 972 -333 172 -12 415 24 619 91 134 44 362 153 499 239
l106 67 20 -26 c12 -14 36 -47 54 -74 18 -26 55 -79 83 -118 27 -38 49 -72 49
-76 0 -25 -358 -228 -536 -302 -570 -240 -1176 -223 -1744 49 -187 90 -430
233 -430 254 0 13 196 290 206 290 2 0 48 -28 102 -61z"/>
<path d="M2181 1964 c-60 -16 -111 -48 -111 -70 0 -18 -3 -19 75 17 81 38 125
36 227 -10 90 -41 144 -41 235 0 103 46 147 48 228 10 78 -36 75 -35 75 -17 0
23 -52 54 -115 71 -68 17 -114 10 -211 -35 -79 -37 -109 -37 -187 -1 -34 16
-78 32 -97 36 -19 3 -42 8 -50 10 -8 2 -39 -3 -69 -11z"/>
<path d="M2135 1877 c-57 -27 -82 -51 -65 -62 7 -4 33 4 58 18 87 47 145 45
262 -11 72 -35 128 -35 201 0 116 56 199 58 271 6 34 -23 69 -18 47 8 -30 37
-92 58 -169 59 -65 0 -86 -5 -149 -34 -86 -39 -128 -38 -213 5 -77 39 -175 44
-243 11z"/>
<path d="M2695 1829 c-22 -4 -70 -21 -107 -38 -37 -17 -81 -31 -97 -31 -16 0
-66 16 -111 35 -120 51 -203 47 -291 -16 -21 -15 -27 -25 -20 -32 7 -7 26 -2
63 18 74 41 149 39 238 -4 49 -23 79 -31 120 -31 41 0 71 8 120 31 89 43 164
44 237 5 55 -30 87 -28 58 4 -19 21 -96 55 -140 62 -16 3 -48 2 -70 -3z"/>
<path d="M2135 1737 c-57 -27 -82 -51 -65 -62 7 -4 35 5 63 21 75 41 139 39
237 -5 50 -23 90 -34 120 -34 30 0 70 11 120 34 98 44 162 46 237 5 28 -16 56
-25 63 -21 17 11 -8 35 -65 61 -76 36 -145 32 -244 -11 -43 -19 -95 -35 -114
-35 -19 0 -66 15 -103 32 -93 44 -178 49 -249 15z"/>
<path d="M2158 1676 c-51 -20 -88 -46 -88 -62 0 -19 5 -18 69 14 76 37 134 35
226 -7 108 -49 136 -50 236 -6 108 49 161 51 242 11 40 -19 62 -25 69 -18 7 7
-2 18 -28 35 -90 58 -178 61 -288 9 -86 -41 -126 -40 -212 0 -79 37 -166 46
-226 24z"/>
<path d="M2152 1605 c-58 -26 -95 -56 -83 -68 8 -8 22 -5 48 10 91 51 160 49
268 -5 66 -33 143 -34 205 -2 106 54 185 56 272 8 27 -16 41 -19 49 -11 7 7 2
17 -20 32 -88 63 -172 68 -290 16 -43 -19 -94 -35 -111 -35 -17 0 -64 14 -103
32 -85 38 -182 47 -235 23z"/>
<path d="M2150 1534 c-58 -27 -93 -55 -81 -67 7 -7 28 -2 68 19 80 40 137 39
229 -6 53 -26 82 -34 124 -34 42 0 71 8 124 34 92 45 149 46 228 6 31 -15 61
-25 68 -21 19 12 -17 43 -79 66 -76 28 -146 23 -235 -19 -87 -41 -126 -41
-212 0 -82 39 -177 47 -234 22z"/>
<path d="M2155 1463 c-65 -29 -85 -43 -85 -58 0 -20 8 -19 70 12 75 37 124 35
233 -10 48 -21 101 -37 117 -37 16 0 69 16 117 37 110 45 157 47 236 8 40 -19
61 -25 68 -18 13 13 -28 43 -94 68 -63 24 -133 16 -222 -24 -85 -39 -125 -39
-211 0 -86 39 -171 47 -229 22z"/>
<path d="M2164 1396 c-49 -16 -93 -46 -94 -63 0 -19 12 -16 70 13 71 36 148
31 244 -14 87 -41 127 -41 213 0 97 46 171 49 247 12 70 -34 97 -21 39 19 -83
57 -181 59 -288 7 -81 -39 -129 -39 -212 1 -74 36 -157 46 -219 25z"/>
<path d="M1382 944 c-46 -81 -49 -98 -18 -129 21 -21 34 -26 63 -23 35 3 41 8
75 68 26 45 34 66 26 71 -17 11 -22 6 -57 -57 -28 -48 -35 -55 -59 -52 -35 4
-42 46 -14 86 37 52 43 69 29 81 -10 8 -21 -3 -45 -45z"/>
<path d="M3478 974 c-4 -3 10 -33 30 -66 39 -66 37 -90 -9 -96 -20 -2 -30 7
-57 53 -18 30 -40 55 -48 55 -19 0 -18 -6 12 -59 38 -66 54 -81 84 -81 36 0
80 35 80 64 0 24 -59 128 -76 133 -5 2 -13 1 -16 -3z"/>
<path d="M1525 834 c-39 -86 -41 -94 -20 -94 8 0 24 21 36 48 24 53 26 51 37
-33 5 -45 11 -61 25 -63 13 -3 26 15 53 73 24 51 33 80 26 87 -6 6 -20 -7 -38
-41 -26 -46 -30 -49 -36 -29 -3 13 -6 41 -7 64 -1 37 -15 64 -33 64 -4 0 -23
-34 -43 -76z"/>
<path d="M3276 861 c-11 -17 6 -192 18 -188 6 2 12 15 14 29 5 39 73 63 100
36 8 -8 15 -9 22 -2 7 7 -11 30 -54 72 -61 59 -88 73 -100 53z m74 -82 c0 -8
-31 -21 -36 -16 -2 2 -7 19 -10 38 l-7 34 27 -24 c14 -14 26 -28 26 -32z"/>
<path d="M1691 759 c-35 -90 -36 -99 -18 -99 7 0 28 35 45 78 37 88 37 88 18
95 -9 4 -23 -18 -45 -74z"/>
<path d="M3167 813 c-3 -5 8 -38 23 -73 16 -36 30 -71 30 -77 0 -11 40 -20 40
-9 0 2 -15 39 -33 82 -32 74 -49 95 -60 77z"/>
<path d="M1770 717 c0 -136 6 -137 123 -2 32 37 35 22 11 -68 -12 -49 -13 -61
-2 -68 19 -12 108 -32 115 -26 11 12 -8 25 -47 31 -38 6 -41 9 -38 34 3 28 9
30 66 18 25 -6 32 -4 32 7 0 10 -14 18 -40 22 -34 6 -40 10 -40 32 0 23 3 24
33 17 46 -11 66 -10 67 1 1 6 -33 19 -76 29 l-78 19 -48 -54 -49 -54 3 75 c3
65 1 75 -14 78 -16 3 -18 -6 -18 -91z"/>
<path d="M3037 763 c-21 -8 -36 -21 -34 -27 2 -6 15 -44 28 -83 14 -46 28 -73
37 -73 14 0 14 9 0 70 -5 24 28 22 68 -5 20 -14 42 -24 47 -22 18 6 10 22 -20
42 -28 20 -29 22 -15 43 12 18 13 28 4 47 -14 30 -56 33 -115 8z m83 -33 c0
-38 -64 -54 -75 -19 -8 25 8 39 48 39 20 0 27 -5 27 -20z"/>
<path d="M2085 688 c-30 -133 -32 -158 -10 -158 9 0 15 9 15 23 1 59 41 60 66
2 14 -34 38 -54 51 -42 3 4 -4 23 -16 43 -12 20 -21 37 -19 38 33 14 43 27 43
56 0 36 -4 38 -87 54 -34 6 -38 4 -43 -16z m79 -18 c50 -18 24 -59 -29 -46
-18 5 -25 13 -25 31 0 27 13 31 54 15z"/>
<path d="M2800 690 c-11 -11 -20 -24 -20 -30 0 -22 41 -50 74 -50 19 0 39 -7
47 -16 11 -14 10 -18 -6 -30 -25 -18 -40 -18 -60 2 -22 22 -45 3 -25 -21 19
-22 85 -20 110 5 41 41 20 82 -47 89 -34 4 -49 11 -51 23 -4 20 35 35 51 19
15 -15 37 -14 37 3 0 31 -80 36 -110 6z"/>
<path d="M2264 659 c-17 -18 -17 -23 -4 -46 8 -15 31 -32 50 -38 24 -8 35 -18
35 -31 0 -28 -50 -32 -67 -5 -15 24 -38 28 -38 7 0 -20 48 -56 74 -56 33 0 66
28 66 55 0 28 -11 39 -59 63 -19 9 -34 22 -33 27 2 17 48 17 62 1 16 -20 30
-20 30 -2 0 45 -82 63 -116 25z"/>
<path d="M2651 643 c-27 -107 -33 -125 -38 -139 -3 -9 1 -14 11 -14 9 0 21 11
26 24 12 33 68 42 92 14 10 -11 24 -18 32 -16 11 2 4 23 -30 86 -53 95 -77
106 -93 45z m59 -55 c0 -12 -8 -18 -24 -18 -23 0 -24 2 -15 32 5 18 9 35 9 38
1 14 30 -36 30 -52z"/>
<path d="M2420 580 c0 -73 3 -90 15 -90 12 0 15 17 15 90 0 73 -3 90 -15 90
-12 0 -15 -17 -15 -90z"/>
<path d="M2470 655 c0 -10 10 -15 30 -15 l30 0 0 -75 c0 -60 3 -75 15 -75 12
0 15 15 15 74 0 73 0 75 27 78 14 2 28 9 31 16 3 9 -16 12 -72 12 -61 0 -76
-3 -76 -15z"/>
</g>
</svg>
